<svg xmlns="http://www.w3.org/2000/svg" width="1200" height="750" viewBox="0 0 1200 750" role="img" aria-label="AI쏙">
  <defs>
    <linearGradient id="bg" x1="0" y1="0" x2="1" y2="1">
      <stop offset="0" stop-color="#0b1220"/><stop offset="1" stop-color="#111c33"/>
    </linearGradient>
    <pattern id="grid" width="40" height="40" patternUnits="userSpaceOnUse">
      <path d="M40 0H0V40" fill="none" stroke="#ffffff" stroke-opacity="0.045"/>
    </pattern>
  </defs>
  <rect width="1200" height="750" rx="24" fill="url(#bg)"/>
  <rect width="1200" height="750" rx="24" fill="url(#grid)"/>
  <rect x="0" y="0" width="1200" height="6" fill="#f472b6"/>
  <g font-family="Pretendard, 'Apple SD Gothic Neo', 'Noto Sans KR', 'Malgun Gothic', system-ui, sans-serif">
    <text x="60" y="78" font-size="38" font-weight="700" fill="#f8fafc">AI쏙</text>
    <text x="1140" y="76" font-size="20" fill="#f472b6" text-anchor="end" font-family="'JetBrains Mono', Consolas, monospace">nolai</text>
  </g>
  
  <g>
    <rect x="60" y="120" width="1080" height="500" rx="14" fill="#0f172a" stroke="#ffffff" stroke-opacity="0.14"/>
    <rect x="60" y="120" width="1080" height="34" rx="14" fill="#1e293b"/>
    <rect x="60" y="140" width="1080" height="14" fill="#1e293b"/>
    <circle cx="82" cy="137" r="5" fill="#f87171"/>
    <circle cx="100" cy="137" r="5" fill="#fbbf24"/>
    <circle cx="118" cy="137" r="5" fill="#34d399"/>
    <clipPath id="win"><rect x="60" y="154" width="1080" height="466" rx="0"/></clipPath>
    <g clip-path="url(#win)">
    <rect x="60" y="154" width="1080" height="466" fill="#0b1220"/>
    <rect x="130" y="214" width="44" height="44" rx="8" fill="#a78bfa" fill-opacity="0.6"/><rect x="234" y="214" width="44" height="44" rx="8" fill="#fbbf24" fill-opacity="0.9"/><rect x="286" y="214" width="44" height="44" rx="8" fill="#f472b6" fill-opacity="0.35"/><rect x="338" y="214" width="44" height="44" rx="8" fill="#f472b6" fill-opacity="0.6"/><rect x="390" y="214" width="44" height="44" rx="8" fill="#a78bfa" fill-opacity="0.9"/><rect x="494" y="214" width="44" height="44" rx="8" fill="#fbbf24" fill-opacity="0.9"/><rect x="234" y="266" width="44" height="44" rx="8" fill="#fbbf24" fill-opacity="0.6"/><rect x="286" y="266" width="44" height="44" rx="8" fill="#a78bfa" fill-opacity="0.9"/><rect x="390" y="266" width="44" height="44" rx="8" fill="#34d399" fill-opacity="0.9"/><rect x="442" y="266" width="44" height="44" rx="8" fill="#fbbf24" fill-opacity="0.6"/><rect x="130" y="318" width="44" height="44" rx="8" fill="#fbbf24" fill-opacity="0.35"/><rect x="182" y="318" width="44" height="44" rx="8" fill="#f472b6" fill-opacity="0.35"/><rect x="390" y="318" width="44" height="44" rx="8" fill="#fbbf24" fill-opacity="0.6"/><rect x="494" y="318" width="44" height="44" rx="8" fill="#34d399" fill-opacity="0.6"/><rect x="546" y="318" width="44" height="44" rx="8" fill="#a78bfa" fill-opacity="0.35"/><rect x="182" y="370" width="44" height="44" rx="8" fill="#38bdf8" fill-opacity="0.35"/><rect x="234" y="370" width="44" height="44" rx="8" fill="#38bdf8" fill-opacity="0.35"/><rect x="286" y="370" width="44" height="44" rx="8" fill="#fbbf24" fill-opacity="0.9"/><rect x="338" y="370" width="44" height="44" rx="8" fill="#34d399" fill-opacity="0.9"/><rect x="442" y="370" width="44" height="44" rx="8" fill="#34d399" fill-opacity="0.6"/><rect x="494" y="370" width="44" height="44" rx="8" fill="#f8fafc" fill-opacity="0.9"/><rect x="234" y="422" width="44" height="44" rx="8" fill="#f8fafc" fill-opacity="0.6"/><rect x="390" y="422" width="44" height="44" rx="8" fill="#f472b6" fill-opacity="0.6"/><rect x="442" y="422" width="44" height="44" rx="8" fill="#f8fafc" fill-opacity="0.9"/><rect x="494" y="422" width="44" height="44" rx="8" fill="#f8fafc" fill-opacity="0.6"/><rect x="234" y="474" width="44" height="44" rx="8" fill="#34d399" fill-opacity="0.35"/><rect x="286" y="474" width="44" height="44" rx="8" fill="#34d399" fill-opacity="0.6"/><rect x="338" y="474" width="44" height="44" rx="8" fill="#f472b6" fill-opacity="0.6"/><rect x="390" y="474" width="44" height="44" rx="8" fill="#38bdf8" fill-opacity="0.9"/><rect x="494" y="474" width="44" height="44" rx="8" fill="#34d399" fill-opacity="0.9"/><rect x="546" y="474" width="44" height="44" rx="8" fill="#34d399" fill-opacity="0.35"/>
    <g font-family="Pretendard, 'Apple SD Gothic Neo', 'Noto Sans KR', 'Malgun Gothic', system-ui, sans-serif"><rect x="660" y="212" width="146" height="44" rx="22" fill="#f472b6" fill-opacity="0.9"/><text x="733.0" y="241" font-size="20" font-weight="700" fill="#0b1220" text-anchor="middle">임베딩</text><rect x="660" y="274" width="124" height="44" rx="22" fill="#f472b6" fill-opacity="0.78"/><text x="722.0" y="303" font-size="20" font-weight="700" fill="#0b1220" text-anchor="middle">토큰</text><rect x="660" y="336" width="124" height="44" rx="22" fill="#f472b6" fill-opacity="0.66"/><text x="722.0" y="365" font-size="20" font-weight="700" fill="#0b1220" text-anchor="middle">픽셀</text><rect x="660" y="398" width="124" height="44" rx="22" fill="#f472b6" fill-opacity="0.54"/><text x="722.0" y="427" font-size="20" font-weight="700" fill="#0b1220" text-anchor="middle">벡터</text><rect x="660" y="460" width="124" height="44" rx="22" fill="#f472b6" fill-opacity="0.42000000000000004"/><text x="722.0" y="489" font-size="20" font-weight="700" fill="#0b1220" text-anchor="middle">비트</text><rect x="660" y="522" width="212" height="44" rx="22" fill="#f472b6" fill-opacity="0.30000000000000004"/><text x="766.0" y="551" font-size="20" font-weight="700" fill="#0b1220" text-anchor="middle">학습 데이터</text>
      <text x="600.0" y="594" font-size="18" fill="#94a3b8" text-anchor="middle">10~13세가 AI 작동 원리를 손으로 만지며 배우는 웹 놀이터 · 배포 전</text>
    </g></g>
    <rect x="60" y="120" width="1080" height="500" rx="14" fill="none" stroke="#f472b6" stroke-opacity="0.35"/>
  </g>
  <g font-family="Pretendard, 'Apple SD Gothic Neo', 'Noto Sans KR', 'Malgun Gothic', system-ui, sans-serif">
    <text x="60" y="702" font-size="40" font-weight="700" fill="#f472b6" font-family="'JetBrains Mono', Consolas, monospace">next</text>
    <text x="182" y="702" font-size="20" fill="#94a3b8">배포 준비 중</text>
    <text x="1140" y="702" font-size="20" fill="#cbd5e1" text-anchor="end">어린이 AI 원리 놀이터</text>
  </g>
</svg>
